<svg xmlns="http://www.w3.org/2000/svg" width="32" height="32" viewBox="0 0 32 32">
  <path fill="#FFFFFF" fill-rule="evenodd" d="M16,32 C24.836556,32 32,24.836556 32,16 C32,7.163444 24.836556,0 16,0 C7.163444,0 0,7.163444 0,16 C0,24.836556 7.163444,32 16,32 Z M9.89926511,7.0013258 C9.65642913,6.98867727 9.44392479,7.06656612 9.26683784,7.23352881 C9.08975089,7.40049151 9,7.6107087 9,7.85609808 L9,8.99743968 C9,9.45026556 9.34762462,9.82438667 9.80044034,9.85221927 C16.4384936,10.2519155 21.7481021,15.5614923 22.1477917,22.1995333 C22.1756353,22.6523555 22.5521281,23.004992 23.0074684,22.9999465 L24.1439349,22.9999465 C24.3892955,22.9999465 24.5995313,22.9102324 24.7664834,22.7331531 C24.9334354,22.558602 25.0113317,22.3411513 24.9986722,22.095762 C24.5458564,13.9651734 18.032386,7.45414802 9.89926511,7.0013258 Z M9.92548155,12.0032865 C9.67715212,11.9830384 9.4546598,12.0562395 9.27222417,12.2259901 C9.08978853,12.3957628 9,12.6086117 9,12.8594612 L9,14.0027083 C9,14.4461439 9.33357356,14.8133806 9.77701896,14.8539134 C13.6741711,15.221337 16.7787287,18.3209114 17.1461288,22.2180379 C17.1866985,22.6614625 17.5539519,23 17.9973607,23 L19.1406069,23 C19.3914651,23 19.6043189,22.9052828 19.7740742,22.7228445 C19.9413008,22.5403952 20.017053,22.3179005 19.9967864,22.0695871 C19.5508123,16.7154758 15.2821555,12.4492508 9.92548155,12.0032865 Z M11.4973665,18.0000008 C10.1168075,18.001802 8.99890604,19.1208806 9.00000081,20.4999961 C8.99890173,21.8791147 10.1168045,22.998198 11.4973665,22.9999992 C12.1612666,23.0005299 12.798128,22.7373083 13.2675776,22.268352 C13.7370272,21.7993957 14.0005274,21.1632018 13.9999992,20.4999961 C14.0005253,19.8367918 13.7370242,19.2005998 13.2675748,18.7316452 C12.7981255,18.2626906 12.1612653,17.9994701 11.4973665,18.0000008 L11.4973665,18.0000008 Z"/>
</svg>
