<?xml version="1.0" encoding="UTF-8"?>
<svg width="22px" height="22px" viewBox="0 0 22 22" version="1.1" xmlns="http://www.w3.org/2000/svg" xmlns:xlink="http://www.w3.org/1999/xlink">
    <!-- Generator: Sketch 42 (36781) - http://www.bohemiancoding.com/sketch -->
    <title>github_icon_hover</title>
    <desc>Created with Sketch.</desc>
    <defs></defs>
    <g id="Page-1" stroke="none" stroke-width="1" fill="none" fill-rule="evenodd">
        <g id="github_icon_hover" fill-rule="nonzero" fill="#CE9001">
            <path d="M0,11 C0,15.86 3.151,19.983 7.523,21.437 C8.073,21.537 8.273,21.197 8.273,20.907 C8.273,20.647 8.263,19.779 8.258,18.861 C5.198,19.526 4.553,17.564 4.553,17.564 C4.053,16.294 3.331,15.956 3.331,15.956 C2.333,15.274 3.408,15.286 3.408,15.286 C4.513,15.364 5.094,16.42 5.094,16.42 C6.076,18.1 7.67,17.615 8.294,17.333 C8.394,16.623 8.68,16.137 8.994,15.863 C6.552,15.586 3.984,14.643 3.984,10.427 C3.984,9.225 4.412,8.245 5.114,7.475 C5.002,7.195 4.624,6.075 5.224,4.562 C5.224,4.562 6.146,4.267 8.248,5.69 C9.1448376,5.44503062 10.0703079,5.32060328 11,5.32 C11.935,5.324 12.876,5.446 13.754,5.69 C15.854,4.267 16.777,4.563 16.777,4.563 C17.377,6.079 17,7.197 16.887,7.475 C17.592,8.245 18.017,9.225 18.017,10.427 C18.017,14.652 15.445,15.583 12.994,15.855 C13.39,16.197 13.741,16.865 13.741,17.891 C13.741,19.361 13.727,20.548 13.727,20.911 C13.727,21.203 13.927,21.546 14.484,21.438 C18.85,19.98 22,15.857 22,11 C22,4.925 17.075,0 11,0 C4.925,0 0,4.925 0,11 Z" id="Shape"></path>
        </g>
    </g>
</svg>