<?xml version="1.0" encoding="UTF-8"?>
<svg width="30px" height="30px" viewBox="0 0 30 30" version="1.1" xmlns="http://www.w3.org/2000/svg" xmlns:xlink="http://www.w3.org/1999/xlink">
    <!-- Generator: Sketch 42 (36781) - http://www.bohemiancoding.com/sketch -->
    <title>ic-link-hover</title>
    <desc>Created with Sketch.</desc>
    <defs></defs>
    <g id="Page-1" stroke="none" stroke-width="1" fill="none" fill-rule="evenodd">
        <g id="Artboard" transform="translate(-887.000000, -290.000000)">
            <g id="ic-link-hover" transform="translate(887.000000, 290.000000)">
                <circle id="Oval-1" fill="#359C9C" cx="15" cy="15" r="15"></circle>
                <path d="M19.5646354,9.04357989 C18.7098555,8.56646142 17.7176717,8.44630732 16.7711116,8.7042801 C15.8245516,8.96242778 15.0365209,9.5680954 14.5524118,10.4100486 L14.1840487,11.0508705 C14.1586628,11.0945947 14.1403777,11.1404176 14.1261758,11.1867653 C14.578863,11.2485039 15.0200111,11.3749542 15.4345305,11.5664662 L15.7237178,11.0638128 C16.0306574,10.5300278 16.530211,10.1459544 17.130421,9.98242592 C17.7302759,9.81837272 18.3594223,9.89515241 18.9012268,10.197549 C20.0196304,10.8221055 20.4139121,12.2263519 19.7803275,13.3282017 L18.527893,15.505492 C18.2209533,16.039277 17.7215772,16.4235253 17.1215448,16.5868789 C16.5211573,16.7507572 15.8921884,16.6739775 15.350384,16.3719307 C14.6095747,15.9581249 14.1618582,15.1810584 14.1689592,14.3527472 C13.8463974,14.1892186 13.4656075,14.1481179 13.1141093,14.2434367 C13.0120327,14.2710703 12.9152819,14.3100723 12.8236794,14.3574694 C12.8183536,15.6578271 13.5229479,16.8756335 14.6867978,17.5257249 C15.2896706,17.8618765 15.9605353,18.0210326 16.6356605,17.9953228 C16.9179243,17.9844792 17.2012532,17.9414546 17.4803216,17.8651996 C18.4270591,17.6072268 19.2149124,17.0015592 19.6991989,16.159606 L20.951811,13.9821408 C21.9507407,12.2440164 21.3286952,10.0287736 19.5646354,9.04357989 Z M14.2788468,18.9357429 C13.9719071,19.4697028 13.4723535,19.8537762 12.8721435,20.0174796 C12.2719336,20.1808332 11.6431422,20.1044033 11.1013378,19.8018319 C10.5591783,19.4994353 10.1693347,19.0072757 10.0035269,18.4159496 C9.83754164,17.8247984 9.91494227,17.205314 10.2220595,16.6717038 L11.474494,14.4940638 C11.7814337,13.9602787 12.2808098,13.5762054 12.8808422,13.4126769 C13.4810522,13.2489734 14.1100211,13.3255782 14.6514705,13.6279748 C15.3926348,14.0416057 15.8399962,14.8186722 15.8328953,15.6473333 C16.1559896,15.8110367 16.537312,15.8521374 16.8882777,15.756294 C16.9901767,15.7286603 17.08675,15.6894834 17.1785301,15.6422613 C17.1836783,14.3417287 16.479084,13.1239222 15.3152341,12.4743555 C14.4608093,11.9972371 13.4682704,11.8767332 12.5220654,12.1347059 C11.5755054,12.3928536 10.7874746,12.9986961 10.3033656,13.8406493 L9.05093108,16.0181145 C8.56664455,16.8600677 8.44433025,17.837391 8.70617872,18.7699407 C8.96802719,19.7024905 9.58297167,20.4788574 10.4375741,20.9558009 C11.0404469,21.2921275 11.711134,21.4514585 12.3862593,21.4259235 C12.6687006,21.414905 12.951852,21.3717055 13.2309203,21.2958003 C14.1776579,21.0376526 14.9655111,20.431985 15.4497976,19.5900318 L15.8181607,18.9490351 C15.8431917,18.9060104 15.8614767,18.861062 15.8755011,18.815239 C15.4247667,18.7535004 14.9836186,18.6263505 14.5675014,18.4336142 L14.2788468,18.9357429 Z" id="Shape" fill="#177878" fill-rule="nonzero"></path>
            </g>
        </g>
    </g>
</svg>