<svg xmlns="http://www.w3.org/2000/svg" width="14" height="16" viewBox="0 0 14 16">
  <path fill="#FFFFFF" d="M10.1422222,11.5963855 L4.5966667,8.3556448 C4.6355556,8.1760375 4.6666667,7.9964302 4.6666667,7.8090138 C4.6666667,7.6215975 4.6355556,7.4419902 4.5966667,7.2623829 L10.08,4.0528782 C10.5,4.4433289 11.0522222,4.6854083 11.6666667,4.6854083 C12.9577778,4.6854083 14,3.6390004 14,2.34270415 C14,1.04640785 12.9577778,0 11.6666667,0 C10.3755556,0 9.3333333,1.04640785 9.3333333,2.34270415 C9.3333333,2.53012048 9.3644444,2.7097278 9.4033333,2.88933512 L3.92,6.0988398 C3.5,5.7083891 2.94777778,5.4663097 2.33333333,5.4663097 C1.04222222,5.4663097 0,6.5127175 0,7.8090138 C0,9.1053101 1.04222222,10.151718 2.33333333,10.151718 C2.94777778,10.151718 3.5,9.9096386 3.92,9.5191879 L9.4577778,12.7677376 C9.4188889,12.9317269 9.3955556,13.1035252 9.3955556,13.2753235 C9.3955556,14.5325747 10.4144444,15.5555556 11.6666667,15.5555556 C12.9188889,15.5555556 13.9377778,14.5325747 13.9377778,13.2753235 C13.9377778,12.0180723 12.9188889,10.9950915 11.6666667,10.9950915 C11.0755556,10.9950915 10.5466667,11.2293619 10.1422222,11.5963855 Z"/>
</svg>
